<svg width="1259" height="323" viewBox="0 0 1259 323" fill="none" xmlns="http://www.w3.org/2000/svg">
<path d="M197.013 205.066L184.585 194.335L200.945 192.934C216.989 191.56 231.56 183.032 240.616 169.717L251.969 153.027L251.372 173.203C250.896 189.299 257.696 204.753 269.883 215.277L282.311 226.008L265.951 227.409C249.907 228.783 235.336 237.311 226.28 250.626L214.928 267.317L215.524 247.14C216 231.044 209.201 215.591 197.013 205.066Z" fill="#FFAA33" stroke="#FFC166" stroke-width="7"/>
<path d="M164.867 161.918C153.786 164.088 143.785 170.043 136.596 178.769C135.892 167.485 131.285 156.795 123.584 148.538C134.664 146.368 144.665 140.413 151.855 131.687C152.559 142.972 157.166 153.661 164.867 161.918Z" fill="#FFD799" stroke="#FFECCC" stroke-width="5"/>
<path d="M312.921 90.7418C301.76 92.9215 291.687 98.9206 284.452 107.715C283.752 96.3487 279.112 85.5814 271.352 77.2695C282.513 75.0898 292.586 69.0907 299.821 60.2964C300.521 71.6626 305.161 82.4299 312.921 90.7418Z" fill="#FFD799" stroke="#FFECCC" stroke-width="5"/>
<path d="M318.051 171.301C309.935 172.775 302.617 177.159 297.487 183.639C297.133 175.381 293.778 167.539 288.069 161.584C296.186 160.109 303.503 155.726 308.634 149.245C308.988 157.504 312.342 165.346 318.051 171.301Z" fill="#FFECCC" stroke="white" stroke-width="3"/>
<path d="M186.685 93.5784L185.307 92.3889L187.121 92.2336C202.865 90.885 217.164 82.5167 226.051 69.4507L228.318 66.1173L228.199 70.1469C227.732 85.9417 234.404 101.107 246.364 111.434L247.742 112.624L245.928 112.779C230.184 114.127 215.885 122.496 206.998 135.562L204.731 138.895L204.85 134.866C205.317 119.071 198.645 103.906 186.685 93.5784Z" fill="#FFC166" stroke="#FFD799" stroke-width="5"/>
<path d="M161.281 246.588C152.171 248.173 143.963 253.108 138.288 260.436C137.99 251.172 134.237 242.361 127.79 235.733C136.899 234.148 145.107 229.213 150.782 221.885C151.08 231.149 154.833 239.96 161.281 246.588Z" fill="#FFECCC" stroke="white" stroke-width="3"/>
<path d="M404 241V129.8H366.2V110.2H465V129.8H427.2V241H404ZM503.572 171.4L498.972 187.4H532.372L527.772 171.4C525.639 164.467 523.572 157.333 521.572 150C519.705 142.667 517.839 135.4 515.972 128.2H515.172C513.439 135.533 511.572 142.867 509.572 150.2C507.705 157.4 505.705 164.467 503.572 171.4ZM459.772 241L502.372 110.2H529.572L572.172 241H547.772L537.572 205.6H493.572L483.372 241H459.772ZM586.295 241V110.2H621.295C641.295 110.2 656.895 115.6 668.095 126.4C679.295 137.2 684.895 153.4 684.895 175C684.895 196.733 679.362 213.2 668.295 224.4C657.229 235.467 641.962 241 622.495 241H586.295ZM609.495 222.2H619.695C632.895 222.2 643.095 218.4 650.295 210.8C657.495 203.067 661.095 191.133 661.095 175C661.095 159 657.495 147.333 650.295 140C643.095 132.667 632.895 129 619.695 129H609.495V222.2ZM734.142 171.4L729.542 187.4H762.942L758.342 171.4C756.209 164.467 754.142 157.333 752.142 150C750.276 142.667 748.409 135.4 746.542 128.2H745.742C744.009 135.533 742.142 142.867 740.142 150.2C738.276 157.4 736.276 164.467 734.142 171.4ZM690.342 241L732.942 110.2H760.142L802.742 241H778.342L768.142 205.6H724.142L713.942 241H690.342Z" fill="white"/>
</svg>
