<svg width="290" height="294" viewBox="0 0 290 294" fill="none" xmlns="http://www.w3.org/2000/svg">
<g clip-path="url(#clip0_120_80)">
<path d="M116.013 205.066L103.585 194.335L119.945 192.934C135.989 191.56 150.56 183.032 159.616 169.717L170.969 153.027L170.372 173.203C169.896 189.299 176.696 204.753 188.883 215.277L201.311 226.008L184.951 227.409C168.907 228.783 154.336 237.311 145.28 250.626L133.928 267.317L134.524 247.14C135 231.044 128.201 215.591 116.013 205.066Z" fill="#FFAA33" stroke="#FFC166" stroke-width="7"/>
<path d="M83.867 161.918C72.7864 164.088 62.7853 170.043 55.5956 178.769C54.8915 167.484 50.2848 156.795 42.5835 148.538C53.6641 146.368 63.6652 140.413 70.8549 131.687C71.559 142.972 76.1657 153.661 83.867 161.918Z" fill="#FFD799" stroke="#FFECCC" stroke-width="5"/>
<path d="M231.921 90.7418C220.76 92.9215 210.687 98.9206 203.452 107.715C202.752 96.3487 198.112 85.5814 190.352 77.2695C201.513 75.0898 211.586 69.0907 218.821 60.2964C219.521 71.6626 224.161 82.4299 231.921 90.7418Z" fill="#FFD799" stroke="#FFECCC" stroke-width="5"/>
<path d="M237.051 171.301C228.935 172.775 221.617 177.159 216.487 183.639C216.133 175.381 212.778 167.539 207.069 161.584C215.186 160.109 222.503 155.726 227.634 149.245C227.988 157.504 231.342 165.346 237.051 171.301Z" fill="#FFECCC" stroke="white" stroke-width="3"/>
<path d="M105.685 93.5784L104.307 92.3889L106.121 92.2336C121.865 90.885 136.164 82.5167 145.051 69.4507L147.318 66.1173L147.199 70.1469C146.732 85.9417 153.404 101.107 165.364 111.434L166.742 112.624L164.928 112.779C149.184 114.127 134.885 122.496 125.998 135.562L123.731 138.895L123.85 134.866C124.317 119.071 117.645 103.906 105.685 93.5784Z" fill="#FFC166" stroke="#FFD799" stroke-width="5"/>
<path d="M80.2807 246.588C71.1713 248.173 62.9631 253.108 57.2881 260.436C56.9904 251.172 53.237 242.361 46.7895 235.733C55.899 234.148 64.1071 229.213 69.7821 221.885C70.0799 231.149 73.8332 239.96 80.2807 246.588Z" fill="#FFECCC" stroke="white" stroke-width="3"/>
</g>
<defs>
<clipPath id="clip0_120_80">
<rect width="290" height="294" fill="white"/>
</clipPath>
</defs>
</svg>
