<svg width="278" height="323" viewBox="0 0 278 323" fill="none" xmlns="http://www.w3.org/2000/svg">
<path d="M118.013 205.066L105.585 194.335L121.945 192.934C137.989 191.56 152.56 183.032 161.616 169.717L172.969 153.027L172.372 173.203C171.896 189.299 178.696 204.753 190.883 215.277L203.311 226.008L186.951 227.409C170.907 228.783 156.336 237.311 147.28 250.626L135.928 267.317L136.524 247.14C137 231.044 130.201 215.591 118.013 205.066Z" fill="#8269A2" stroke="#A18DBB" stroke-width="7"/>
<path d="M85.867 161.918C74.7864 164.088 64.7853 170.043 57.5956 178.769C56.8915 167.484 52.2848 156.795 44.5835 148.538C55.6641 146.368 65.6652 140.413 72.8549 131.687C73.559 142.972 78.1657 153.661 85.867 161.918Z" fill="#C0B2D2" stroke="#E0D8E9" stroke-width="5"/>
<path d="M233.921 90.7418C222.76 92.9215 212.687 98.9206 205.452 107.715C204.752 96.3487 200.112 85.5814 192.352 77.2695C203.513 75.0898 213.586 69.0907 220.821 60.2964C221.521 71.6626 226.161 82.4299 233.921 90.7418Z" fill="#C0B2D2" stroke="#E0D8E9" stroke-width="5"/>
<path d="M239.051 171.301C230.935 172.775 223.617 177.159 218.487 183.639C218.133 175.381 214.778 167.539 209.069 161.584C217.186 160.109 224.503 155.726 229.634 149.245C229.988 157.504 233.342 165.346 239.051 171.301Z" fill="#E0D8E9" stroke="white" stroke-width="3"/>
<path d="M107.685 93.5784L106.307 92.3889L108.121 92.2336C123.865 90.885 138.164 82.5167 147.051 69.4507L149.318 66.1173L149.199 70.1469C148.732 85.9417 155.404 101.107 167.364 111.434L168.742 112.624L166.928 112.779C151.184 114.127 136.885 122.496 127.998 135.562L125.731 138.895L125.85 134.866C126.317 119.071 119.645 103.906 107.685 93.5784Z" fill="#A18DBB" stroke="#C0B2D2" stroke-width="5"/>
<path d="M82.2807 246.588C73.1713 248.173 64.9631 253.108 59.2881 260.436C58.9904 251.172 55.237 242.361 48.7895 235.733C57.899 234.148 66.1071 229.213 71.7821 221.885C72.0799 231.149 75.8332 239.96 82.2807 246.588Z" fill="#E0D8E9" stroke="white" stroke-width="3"/>
</svg>
