<svg width="1167" height="780" viewBox="0 0 1167 780" fill="none" xmlns="http://www.w3.org/2000/svg">
<path d="M467.855 560.915C508.717 529.755 340.162 327.769 340.162 327.769C340.162 327.769 457.324 499.626 432.43 534.818C407.535 570.009 318.224 542.585 318.224 542.585C318.224 542.585 426.993 592.074 467.855 560.915Z" fill="#B0B0B0"/>
<rect x="54" y="705.048" width="638.552" height="52.2799" rx="16" transform="rotate(-45 54 705.048)" fill="#404040"/>
<path d="M65.3137 716.362C59.0653 710.113 59.0653 699.983 65.3137 693.734L100.492 658.555L137.46 695.523L102.281 730.702C96.0328 736.95 85.9022 736.95 79.6538 730.702L65.3137 716.362Z" fill="white"/>
<path d="M66.3744 694.795L100.492 660.677L135.339 695.523L101.221 729.641C95.5579 735.304 86.377 735.304 80.7144 729.641L66.3744 715.301C60.7118 709.638 60.7118 700.457 66.3744 694.795Z" stroke="black" stroke-opacity="0.19" stroke-width="3"/>
<path d="M531.146 279.177C537.395 285.426 537.395 295.556 531.146 301.805L495.968 336.983L459 300.016L494.179 264.837C500.427 258.589 510.558 258.589 516.806 264.837L531.146 279.177Z" fill="white"/>
<path d="M530.086 300.744L495.968 334.862L461.121 300.016L495.239 265.898C500.902 260.235 510.083 260.235 515.746 265.898L530.086 280.238C535.748 285.901 535.748 295.082 530.086 300.744Z" stroke="black" stroke-opacity="0.19" stroke-width="3"/>
<rect x="84.2617" y="690.763" width="541.244" height="15.5306" transform="rotate(-45 84.2617 690.763)" fill="white" fill-opacity="0.6"/>
<path d="M176.29 366.539C135.429 397.699 303.988 599.682 303.988 599.682C303.988 599.682 186.823 427.827 211.717 392.635C236.61 357.443 325.922 384.866 325.922 384.866C325.922 384.866 217.152 335.379 176.29 366.539Z" fill="#CFCFCF"/>
<path d="M345 677.564C290.5 690.564 210.5 627.564 210.5 627.564C210.5 627.564 292.5 708.564 357.5 693.064C422.5 677.564 196 260.564 247 254.564C298 248.564 409 317.564 409 317.564C409 317.564 286 234.064 234.5 242.064C183 250.064 399.5 664.564 345 677.564Z" fill="#CFCFCF"/>
<path d="M608.087 207.716L589.374 191.557L614.007 189.447C629.002 188.163 642.62 180.193 651.084 167.749L669.183 141.138L668.232 173.307C667.787 188.349 674.142 202.792 685.532 212.628L704.245 228.786L679.611 230.896C664.617 232.181 650.999 240.151 642.535 252.594L624.436 279.205L625.387 247.037C625.832 231.994 619.477 217.551 608.087 207.716Z" fill="white"/>
<path d="M547.431 186.562L547.531 183.178C547.943 169.253 542.061 155.884 531.517 146.779C545.397 145.59 558.003 138.212 565.838 126.693L567.742 123.894L567.642 127.278C567.23 141.203 573.112 154.572 583.656 163.677C569.776 164.866 557.17 172.244 549.335 183.763L547.431 186.562Z" fill="white"/>
<path d="M695.286 115.515L695.386 112.112C695.8 98.1093 689.885 84.6649 679.282 75.5093C693.24 74.3137 705.917 66.8948 713.795 55.3112L715.71 52.4964L715.609 55.8991C715.195 69.9019 721.111 83.3464 731.714 92.502C717.756 93.6976 705.079 101.116 697.2 112.7L695.286 115.515Z" fill="white"/>
<path d="M709.295 188.432L709.365 186.057C709.654 176.285 705.526 166.902 698.126 160.513C707.867 159.679 716.714 154.501 722.212 146.417L723.548 144.453L723.478 146.828C723.189 156.6 727.317 165.982 734.717 172.372C724.976 173.206 716.129 178.384 710.631 186.467L709.295 188.432Z" fill="white"/>
<path d="M598.412 95.4706L592.545 90.4043L600.269 89.7427C615.263 88.4583 628.881 80.4885 637.345 68.0447L644.432 57.6256L644.059 70.2208C643.615 85.2635 649.969 99.7064 661.359 109.542L667.227 114.608L659.503 115.27C644.509 116.554 630.89 124.524 622.427 136.968L615.34 147.387L615.713 134.792C616.157 119.749 609.803 105.306 598.412 95.4706Z" fill="white"/>
<path d="M550.076 265.291L550.153 262.685C550.47 251.961 545.94 241.665 537.82 234.654C548.509 233.738 558.217 228.057 564.251 219.186L565.717 217.03L565.64 219.636C565.323 230.36 569.853 240.656 577.973 247.667C567.284 248.583 557.576 254.264 551.542 263.135L550.076 265.291Z" fill="white"/>
<path d="M637 616V504.8H599.2V485.2H698V504.8H660.2V616H637ZM736.572 546.4L731.972 562.4H765.372L760.772 546.4C758.639 539.467 756.572 532.333 754.572 525C752.705 517.667 750.839 510.4 748.972 503.2H748.172C746.439 510.533 744.572 517.867 742.572 525.2C740.705 532.4 738.705 539.467 736.572 546.4ZM692.772 616L735.372 485.2H762.572L805.172 616H780.772L770.572 580.6H726.572L716.372 616H692.772ZM819.295 616V485.2H854.295C874.295 485.2 889.895 490.6 901.095 501.4C912.295 512.2 917.895 528.4 917.895 550C917.895 571.733 912.362 588.2 901.295 599.4C890.229 610.467 874.962 616 855.495 616H819.295ZM842.495 597.2H852.695C865.895 597.2 876.095 593.4 883.295 585.8C890.495 578.067 894.095 566.133 894.095 550C894.095 534 890.495 522.333 883.295 515C876.095 507.667 865.895 504 852.695 504H842.495V597.2ZM967.142 546.4L962.542 562.4H995.942L991.342 546.4C989.209 539.467 987.142 532.333 985.142 525C983.276 517.667 981.409 510.4 979.542 503.2H978.742C977.009 510.533 975.142 517.867 973.142 525.2C971.276 532.4 969.276 539.467 967.142 546.4ZM923.342 616L965.942 485.2H993.142L1035.74 616H1011.34L1001.14 580.6H957.142L946.942 616H923.342Z" fill="white"/>
</svg>
