<svg width="1167" height="780" viewBox="0 0 1167 780" fill="none" xmlns="http://www.w3.org/2000/svg">
<path d="M467.855 560.915C508.717 529.755 340.162 327.769 340.162 327.769C340.162 327.769 457.324 499.626 432.43 534.818C407.535 570.009 318.224 542.585 318.224 542.585C318.224 542.585 426.993 592.074 467.855 560.915Z" fill="#CCE2F0"/>
<rect x="54" y="705.048" width="638.552" height="52.2799" rx="16" transform="rotate(-45 54 705.048)" fill="#404040"/>
<path d="M65.3137 716.362C59.0653 710.113 59.0653 699.983 65.3137 693.734L100.492 658.555L137.46 695.523L102.281 730.702C96.0328 736.95 85.9022 736.95 79.6538 730.702L65.3137 716.362Z" fill="white"/>
<path d="M66.3744 694.795L100.492 660.677L135.339 695.523L101.221 729.641C95.5579 735.304 86.377 735.304 80.7144 729.641L66.3744 715.301C60.7118 709.638 60.7118 700.457 66.3744 694.795Z" stroke="black" stroke-opacity="0.19" stroke-width="3"/>
<path d="M531.146 279.177C537.395 285.426 537.395 295.556 531.146 301.805L495.968 336.983L459 300.016L494.179 264.837C500.427 258.589 510.558 258.589 516.806 264.837L531.146 279.177Z" fill="white"/>
<path d="M530.086 300.744L495.968 334.862L461.121 300.016L495.239 265.898C500.902 260.235 510.083 260.235 515.746 265.898L530.086 280.238C535.748 285.901 535.748 295.082 530.086 300.744Z" stroke="black" stroke-opacity="0.19" stroke-width="3"/>
<rect x="84.2617" y="690.763" width="541.244" height="15.5306" transform="rotate(-45 84.2617 690.763)" fill="white" fill-opacity="0.6"/>
<path d="M176.29 366.539C135.429 397.699 303.988 599.682 303.988 599.682C303.988 599.682 186.823 427.827 211.717 392.635C236.61 357.443 325.922 384.866 325.922 384.866C325.922 384.866 217.152 335.379 176.29 366.539Z" fill="#E6F1F8"/>
<path d="M345 677.564C290.5 690.564 210.5 627.564 210.5 627.564C210.5 627.564 292.5 708.564 357.5 693.064C422.5 677.564 196 260.564 247 254.564C298 248.564 409 317.564 409 317.564C409 317.564 286 234.064 234.5 242.064C183 250.064 399.5 664.564 345 677.564Z" fill="#E6F1F8"/>
<path d="M610.374 205.066L597.947 194.335L614.306 192.934C630.35 191.56 644.922 183.032 653.978 169.717L665.33 153.027L664.733 173.203C664.258 189.299 671.057 204.753 683.245 215.277L695.672 226.008L679.313 227.409C663.269 228.783 648.697 237.311 639.641 250.626L628.289 267.317L628.885 247.14C629.361 231.044 622.562 215.591 610.374 205.066Z" fill="#FFAA33" stroke="#FFC166" stroke-width="7"/>
<path d="M578.228 161.918C567.148 164.088 557.147 170.043 549.957 178.769C549.253 167.485 544.646 156.795 536.945 148.538C548.025 146.368 558.027 140.413 565.216 131.687C565.92 142.972 570.527 153.661 578.228 161.918Z" fill="#FFD799" stroke="#FFECCC" stroke-width="5"/>
<path d="M726.282 90.7418C715.122 92.9215 705.049 98.9206 697.814 107.715C697.113 96.3487 692.474 85.5814 684.713 77.2695C695.874 75.0898 705.947 69.0907 713.182 60.2964C713.883 71.6626 718.522 82.4299 726.282 90.7418Z" fill="#FFD799" stroke="#FFECCC" stroke-width="5"/>
<path d="M731.412 171.301C723.296 172.775 715.979 177.159 710.848 183.639C710.494 175.381 707.139 167.539 701.431 161.584C709.547 160.109 716.864 155.726 721.995 149.245C722.349 157.504 725.704 165.346 731.412 171.301Z" fill="#FFECCC" stroke="white" stroke-width="3"/>
<path d="M600.046 93.5784L598.669 92.3889L600.482 92.2336C616.226 90.885 630.525 82.5167 639.412 69.4507L641.679 66.1173L641.56 70.1469C641.093 85.9417 647.766 101.107 659.726 111.434L661.103 112.624L659.29 112.779C643.546 114.127 629.246 122.496 620.36 135.562L618.092 138.895L618.212 134.866C618.678 119.071 612.006 103.906 600.046 93.5784Z" fill="#FFC166" stroke="#FFD799" stroke-width="5"/>
<path d="M574.642 246.588C565.533 248.173 557.324 253.108 551.649 260.436C551.352 251.172 547.598 242.361 541.151 235.733C550.26 234.148 558.468 229.213 564.143 221.885C564.441 231.149 568.195 239.96 574.642 246.588Z" fill="#FFECCC" stroke="white" stroke-width="3"/>
<path d="M637 616V504.8H599.2V485.2H698V504.8H660.2V616H637ZM736.572 546.4L731.972 562.4H765.372L760.772 546.4C758.639 539.467 756.572 532.333 754.572 525C752.705 517.667 750.839 510.4 748.972 503.2H748.172C746.439 510.533 744.572 517.867 742.572 525.2C740.705 532.4 738.705 539.467 736.572 546.4ZM692.772 616L735.372 485.2H762.572L805.172 616H780.772L770.572 580.6H726.572L716.372 616H692.772ZM819.295 616V485.2H854.295C874.295 485.2 889.895 490.6 901.095 501.4C912.295 512.2 917.895 528.4 917.895 550C917.895 571.733 912.362 588.2 901.295 599.4C890.229 610.467 874.962 616 855.495 616H819.295ZM842.495 597.2H852.695C865.895 597.2 876.095 593.4 883.295 585.8C890.495 578.067 894.095 566.133 894.095 550C894.095 534 890.495 522.333 883.295 515C876.095 507.667 865.895 504 852.695 504H842.495V597.2ZM967.142 546.4L962.542 562.4H995.942L991.342 546.4C989.209 539.467 987.142 532.333 985.142 525C983.276 517.667 981.409 510.4 979.542 503.2H978.742C977.009 510.533 975.142 517.867 973.142 525.2C971.276 532.4 969.276 539.467 967.142 546.4ZM923.342 616L965.942 485.2H993.142L1035.74 616H1011.34L1001.14 580.6H957.142L946.942 616H923.342Z" fill="white"/>
</svg>
