<svg width="1167" height="780" viewBox="0 0 1167 780" fill="none" xmlns="http://www.w3.org/2000/svg">
<path d="M467.855 560.915C508.717 529.755 340.162 327.769 340.162 327.769C340.162 327.769 457.324 499.626 432.43 534.818C407.535 570.009 318.224 542.585 318.224 542.585C318.224 542.585 426.993 592.074 467.855 560.915Z" fill="#CCE2F0"/>
<path d="M494.211 264.837L65.3137 693.734C59.0653 699.983 59.0653 710.113 65.3137 716.362L79.6538 730.702C85.9022 736.95 96.0328 736.95 102.281 730.702L531.178 301.805C537.427 295.556 537.427 285.426 531.178 279.177L516.838 264.837C510.59 258.589 500.459 258.589 494.211 264.837Z" fill="#404040"/>
<path d="M65.3137 716.362C59.0653 710.113 59.0653 699.983 65.3137 693.734L100.492 658.555L137.46 695.523L102.281 730.702C96.0328 736.95 85.9022 736.95 79.6538 730.702L65.3137 716.362Z" fill="white"/>
<path d="M66.3744 694.795L100.492 660.677L135.339 695.523L101.221 729.641C95.5579 735.304 86.377 735.304 80.7144 729.641L66.3744 715.301C60.7118 709.638 60.7118 700.457 66.3744 694.795Z" stroke="black" stroke-opacity="0.19" stroke-width="3"/>
<path d="M531.146 279.177C537.395 285.426 537.395 295.556 531.146 301.805L495.968 336.983L459 300.016L494.179 264.837C500.427 258.589 510.558 258.589 516.806 264.837L531.146 279.177Z" fill="white"/>
<path d="M530.086 300.744L495.968 334.862L461.121 300.016L495.239 265.898C500.902 260.235 510.083 260.235 515.746 265.898L530.086 280.238C535.748 285.901 535.748 295.082 530.086 300.744Z" stroke="black" stroke-opacity="0.19" stroke-width="3"/>
<path d="M466.979 308.046L84.2617 690.763L95.2435 701.745L477.961 319.028L466.979 308.046Z" fill="white" fill-opacity="0.6"/>
<path d="M176.29 366.539C135.429 397.699 303.988 599.682 303.988 599.682C303.988 599.682 186.823 427.827 211.717 392.635C236.61 357.443 325.922 384.866 325.922 384.866C325.922 384.866 217.152 335.379 176.29 366.539Z" fill="#E6F1F8"/>
<path d="M345 677.564C290.5 690.564 210.5 627.564 210.5 627.564C210.5 627.564 292.5 708.564 357.5 693.064C422.5 677.564 196 260.564 247 254.564C298 248.564 409 317.564 409 317.564C409 317.564 286 234.064 234.5 242.064C183 250.064 399.5 664.564 345 677.564Z" fill="#E6F1F8"/>
<path d="M610.374 205.066L597.947 194.335L614.306 192.934C630.35 191.56 644.922 183.032 653.978 169.717L665.33 153.027L664.733 173.203C664.258 189.299 671.057 204.753 683.245 215.277L695.672 226.008L679.313 227.409C663.269 228.783 648.697 237.311 639.641 250.626L628.289 267.317L628.885 247.14C629.361 231.044 622.562 215.591 610.374 205.066Z" fill="#FFAA33" stroke="#FFC166" stroke-width="7"/>
<path d="M578.228 161.918C567.148 164.088 557.147 170.043 549.957 178.769C549.253 167.485 544.646 156.795 536.945 148.538C548.025 146.368 558.027 140.413 565.216 131.687C565.92 142.972 570.527 153.661 578.228 161.918Z" fill="#FFD799" stroke="#FFECCC" stroke-width="5"/>
<path d="M726.282 90.7418C715.122 92.9215 705.049 98.9206 697.814 107.715C697.113 96.3487 692.474 85.5814 684.713 77.2695C695.874 75.0898 705.947 69.0907 713.182 60.2964C713.883 71.6626 718.522 82.4299 726.282 90.7418Z" fill="#FFD799" stroke="#FFECCC" stroke-width="5"/>
<path d="M731.412 171.301C723.296 172.775 715.979 177.159 710.848 183.639C710.494 175.381 707.139 167.539 701.431 161.584C709.547 160.109 716.864 155.726 721.995 149.245C722.349 157.504 725.704 165.346 731.412 171.301Z" fill="#FFECCC" stroke="white" stroke-width="3"/>
<path d="M600.046 93.5784L598.669 92.3889L600.482 92.2336C616.226 90.885 630.525 82.5167 639.412 69.4507L641.679 66.1173L641.56 70.1469C641.093 85.9417 647.766 101.107 659.726 111.434L661.103 112.624L659.29 112.779C643.546 114.127 629.246 122.496 620.36 135.562L618.092 138.895L618.212 134.866C618.678 119.071 612.006 103.906 600.046 93.5784Z" fill="#FFC166" stroke="#FFD799" stroke-width="5"/>
<path d="M574.642 246.588C565.533 248.173 557.324 253.108 551.649 260.436C551.352 251.172 547.598 242.361 541.151 235.733C550.26 234.148 558.468 229.213 564.143 221.885C564.441 231.149 568.195 239.96 574.642 246.588Z" fill="#FFECCC" stroke="white" stroke-width="3"/>
</svg>
